<svg aria-hidden="true" style="position:absolute;width:0;height:0" xmlns="http://www.w3.org/2000/svg" overflow="hidden">
  <defs>
    <symbol id="moon" viewBox="0 0 32 32">
      <path fill="currentColor"
        d="M17.701 32a15.97 15.97 0 0012.429-5.925c.442-.544-.04-1.339-.723-1.209-7.763 1.478-14.891-4.474-14.891-12.31 0-4.514 2.416-8.665 6.344-10.9.605-.345.453-1.262-.235-1.389-.879-.17-1.89-.267-2.923-.268-8.832 0-16 7.157-16 16 0 8.832 7.157 16 16 16z" />
    </symbol>
    <symbol id="sun" viewBox="0 0 32 32">
      <path fill="currentColor"
        d="M16 10c-3.306 0-6 2.694-6 6s2.694 6 6 6 6-2.694 6-6-2.694-6-6-6zm15.4 5.031l-5.919-2.956L27.575 5.8c.281-.85-.525-1.656-1.369-1.369l-6.275 2.094L16.969.6c-.4-.8-1.537-.8-1.938 0l-2.956 5.919-6.281-2.094c-.85-.281-1.656.525-1.369 1.369l2.094 6.275L.6 15.032c-.8.4-.8 1.538 0 1.938l5.919 2.956-2.094 6.281c-.281.85.525 1.656 1.369 1.369l6.275-2.094 2.956 5.919c.4.8 1.538.8 1.938 0l2.956-5.919 6.275 2.094c.85.281 1.656-.525 1.369-1.369l-2.094-6.275 5.919-2.956c.813-.406.813-1.544.012-1.944zm-9.744 6.625c-3.119 3.119-8.194 3.119-11.313 0s-3.119-8.194 0-11.313c3.119-3.119 8.194-3.119 11.313 0s3.119 8.194 0 11.313z" />
    </symbol>
    <symbol id="icon-film" viewBox="0 0 32 32">
      <path
        d="M0 4v24h32v-24h-32zM6 26h-4v-4h4v4zM6 18h-4v-4h4v4zM6 10h-4v-4h4v4zM24 26h-16v-20h16v20zM30 26h-4v-4h4v4zM30 18h-4v-4h4v4zM30 10h-4v-4h4v4zM12 10v12l8-6z">
      </path>
    </symbol>
    <svg aria-hidden="true" style="position: absolute; width: 0; height: 0; overflow: hidden;" version="1.1"
      xmlns="http://www.w3.org/2000/svg" xmlns:xlink="http://www.w3.org/1999/xlink">
      <defs>
        <symbol id="icon-search" viewBox="0 0 32 32">
          <path
            d="M31.008 27.231l-7.58-6.447c-0.784-0.705-1.622-1.029-2.299-0.998 1.789-2.096 2.87-4.815 2.87-7.787 0-6.627-5.373-12-12-12s-12 5.373-12 12 5.373 12 12 12c2.972 0 5.691-1.081 7.787-2.87-0.031 0.677 0.293 1.515 0.998 2.299l6.447 7.58c1.104 1.226 2.907 1.33 4.007 0.23s0.997-2.903-0.23-4.007zM12 20c-4.418 0-8-3.582-8-8s3.582-8 8-8 8 3.582 8 8-3.582 8-8 8z">
          </path>
        </symbol>
      </defs>
    </svg>

      <symbol id="sorting-hat" viewBox="0 0 32 32">
        <path fill="#5d4038" style="fill: var(--color1, #5d4038)" d="M31.467 31.467h-30.933l6.4-2.667h18.133l6.4 2.667z"></path>
        <path fill="#664a44" style="fill: var(--color2, #664a44)" d="M6.933 28.8l-6.4 2.667h2.667l6.4-2.667h-2.667z"></path>
        <path fill="#49322e" style="fill: var(--color3, #49322e)" d="M25.067 28.8h-18.133l1.6-2.133h14.933l1.6 2.133z"></path>
        <path fill="#5d4038" style="fill: var(--color1, #5d4038)" d="M8.533 26.667l-1.6 2.133h1.6l1.6-2.133h-1.6z"></path>
        <path fill="#5d4038" style="fill: var(--color1, #5d4038)" d="M18.133 21.333l-6.4 2.667 6.933-0.533 5.333 1.067-0.533 2.133h-14.933l-1.067-2.133 2.667-2.133-1.067-2.133 2.133-3.733-1.067-1.067 3.733-6.4h1.6l2.667-5.867 3.2-1.067v1.6l1.6 1.067h3.2l2.667 4.267-5.867-1.803v-0.016l-1.067-0.315 1.067 0.331v1.803l-2.133 1.067 2.133 2.667-1.067 1.6 1.067 1.6-0.437 0.293-2.763 1.84-3.733-3.733-3.733-1.6 1.6 3.733 2.133 1.6-2.667 2.667 6.4-2.667 1.6 1.6 1.6-1.067-0.533-2.133 1.6 4.267-1.76 2.416-2.507-1.883h-1.6z"></path>
        <path fill="#5d4038" style="fill: var(--color1, #5d4038)" d="M23.467 6.933l1.067 0.331v-0.016l-1.067-0.315z"></path>
        <path fill="#664a44" style="fill: var(--color2, #664a44)" d="M18.133 3.2l-2.933 5.867h-1.333l-3.733 6.4 1.067 1.067-2.133 3.733 1.067 2.133-2.667 2.133 1.067 2.133h1.6l-1.067-2.133 2.667-2.133-1.067-2.133 2.133-3.733-1.067-1.067 0.966-1.657-0.433-1.010 0.818 0.35 1.449-2.484h2l3.2-7.467 1.6-0.533v-0.533l-3.2 1.067z"></path>
        <path fill="#49322e" style="fill: var(--color3, #49322e)" d="M13.333 20.8l2.667-2.667-2.133-1.6-1.6-3.733 3.733 1.6 3.733 3.733-6.4 2.667z"></path>
        <path fill="#49322e" style="fill: var(--color3, #49322e)" d="M23.184 18.624l-0.784-2.091 0.533 2.133-1.6 1.067-1.6-1.6 2.763-1.84 0.763 2.283-0.075 0.048z"></path>
        <path fill="#49322e" style="fill: var(--color3, #49322e)" d="M24 24.533l-5.333-1.067-6.933 0.533 6.4-2.667h1.6l4.267 3.2z"></path>
        <path fill="#000" style="fill: var(--color4, #000)" d="M31.672 30.975l-6.266-2.611-1.36-1.814 0.469-1.875c0.012-0.042 0.019-0.091 0.019-0.141 0-0.024-0.002-0.048-0.005-0.071l0 0.003-0.001-0.002v-0.001l-0.001-0.002v-0.003l-0.001-0.002v-0.002l-0.001-0.002c-0.022-0.141-0.097-0.262-0.203-0.343l-0.001-0.001v-0c-0.006-0.001-0.002-0.001-0.002-0.001l-0.001-0.001-1.365-1.024 1.472-1.963c0.067-0.088 0.107-0.2 0.107-0.32 0-0.067-0.012-0.131-0.035-0.191l0.001 0.004-1.505-4.013 0.234-0.156c0.144-0.097 0.238-0.259 0.238-0.444 0-0.11-0.034-0.213-0.091-0.298l0.001 0.002-0.869-1.304 0.869-1.304c0.056-0.083 0.090-0.186 0.090-0.296 0-0.126-0.044-0.243-0.117-0.334l0.001 0.001-1.721-2.152 1.543-0.772c0.176-0.089 0.295-0.269 0.295-0.477 0-0 0-0 0-0v0-1.083l5.177 1.593c0.047 0.015 0.101 0.024 0.157 0.024 0.294 0 0.533-0.239 0.533-0.533 0-0.105-0.030-0.203-0.082-0.285l0.001 0.002-2.667-4.267c-0.096-0.152-0.262-0.251-0.452-0.251h-3.039l-1.228-0.819v-1.315c-0-0.295-0.239-0.533-0.533-0.533-0.060 0-0.118 0.010-0.172 0.028l0.004-0.001-3.2 1.067c-0.142 0.048-0.255 0.151-0.315 0.282l-0.001 0.003-2.524 5.554h-1.257c-0.196 0-0.367 0.105-0.46 0.262l-0.001 0.002-3.733 6.4c-0.046 0.077-0.072 0.17-0.072 0.268 0 0.147 0.060 0.281 0.156 0.377l0.779 0.779-1.931 3.38c-0.044 0.076-0.070 0.167-0.070 0.265 0 0.087 0.021 0.169 0.058 0.241l-0.001-0.003 0.874 1.748-2.33 1.864c-0.122 0.099-0.2 0.248-0.2 0.416 0 0.087 0.021 0.169 0.058 0.242l-0.001-0.003 0.919 1.839-1.315 1.753-6.266 2.611c-0.194 0.083-0.328 0.272-0.328 0.492 0 0.295 0.239 0.533 0.533 0.533h30.933c0.295 0 0.533-0.239 0.533-0.533 0-0.22-0.134-0.41-0.325-0.491l-0.003-0.001zM8.8 27.2h14.4l0.8 1.067h-16zM22.499 18.316l-1.098 0.732-0.831-0.831 1.513-1.009zM16.32 17.707l-2.019-1.515-1.019-2.377 2.413 1.034 3.098 3.098-3.177 1.323 0.76-0.76c0.096-0.096 0.156-0.23 0.156-0.377 0-0.174-0.083-0.328-0.212-0.426l-0.001-0.001zM14.173 9.6h1.294c0 0 0 0 0 0 0.214 0 0.399-0.127 0.484-0.309l0.001-0.003 2.57-5.655 2.278-0.759v0.86c0 0 0 0 0 0 0 0.184 0.093 0.347 0.236 0.442l0.002 0.001 1.6 1.067c0.083 0.056 0.186 0.090 0.296 0.090h2.904l1.752 2.803-5.566-1.713c-0.047-0.015-0.102-0.024-0.159-0.024-0.294 0-0.533 0.239-0.533 0.533 0 0.239 0.157 0.442 0.374 0.509l0.004 0.001 0.69 0.212v1.082l-1.839 0.919c-0.176 0.090-0.295 0.27-0.295 0.477 0 0.126 0.044 0.243 0.117 0.334l-0.001-0.001 1.89 2.362-0.851 1.276c-0.056 0.083-0.089 0.186-0.089 0.296s0.033 0.213 0.091 0.298l-0.001-0.002 0.771 1.156-2.393 1.595-3.424-3.424c-0.047-0.047-0.102-0.085-0.164-0.112l-0.003-0.001-3.641-1.56zM10.467 22.817c0.122-0.099 0.2-0.248 0.2-0.416 0-0.087-0.021-0.169-0.058-0.242l0.001 0.003-0.939-1.878 1.992-3.485c0.044-0.076 0.070-0.167 0.070-0.265 0-0.147-0.060-0.281-0.156-0.377v0l-0.776-0.776 1.148-1.968 1.428 3.331c0.038 0.088 0.096 0.161 0.169 0.215l0.001 0.001 1.641 1.231-2.232 2.232c-0.097 0.096-0.156 0.23-0.156 0.377 0 0.294 0.239 0.533 0.533 0.533 0.074 0 0.145-0.015 0.209-0.042l-0.003 0.001 6.070-2.529 1.348 1.348c0.096 0.097 0.23 0.156 0.377 0.156 0.11 0 0.213-0.033 0.298-0.091l-0.002 0.001 1.254-0.836 0.515 1.373-1.297 1.729-2.048-1.536c-0.088-0.067-0.199-0.107-0.32-0.107-0 0-0 0-0 0h-1.6c-0.074 0-0.145 0.015-0.209 0.042l0.003-0.001-6.4 2.667c-0.194 0.082-0.328 0.272-0.328 0.492 0 0.295 0.239 0.533 0.533 0.533 0.015 0 0.029-0.001 0.043-0.002l-0.002 0 6.86-0.528 4.712 0.942-0.297 1.187h-14.187l-0.727-1.453zM21.799 23.549l-3.028-0.605c-0.031-0.007-0.067-0.010-0.104-0.010-0 0-0 0-0.001 0h0c-0.014 0-0.027 0.001-0.041 0.002l-3.617 0.278 3.232-1.347h1.316zM3.2 30.934l3.84-1.6h17.92l3.84 1.6z"></path>
      </symbol>
      <symbol id="besom-broom" viewBox="0 0 32 32">
<path d="M26.705 5.161l-2.854 1.584c-0.045 0.025-0.082 0.060-0.11 0.103l-5.274 8.109c-0.050 0.077-0.12 0.139-0.203 0.179l-3.254 1.58-0.757-0.757 3.363-1.634c0.051-0.025 0.095-0.063 0.125-0.111l2.918-4.487c0.094-0.145 0.053-0.338-0.092-0.432s-0.338-0.053-0.432 0.092l-2.871 4.414-3.479 1.69-0.832-0.832c-0.069-0.069-0.166-0.102-0.263-0.089s-0.182 0.071-0.23 0.156l-0.701 1.241c-0.14-0.051-0.288-0.078-0.441-0.078-0.346 0-0.671 0.135-0.916 0.38s-0.379 0.57-0.379 0.916c0 0.073 0.007 0.145 0.019 0.215l-6.257 4.783c-0.137 0.105-0.163 0.301-0.059 0.438 0.062 0.080 0.155 0.123 0.249 0.123 0.066 0 0.133-0.021 0.19-0.064l6.131-4.686 0.107 0.107c0 0 0 0 0 0l0.53 0.53c0.122 0.122 0.32 0.122 0.442 0s0.122-0.32 0-0.442l-0.53-0.53c-0.126-0.126-0.196-0.294-0.196-0.473s0.070-0.347 0.196-0.474c0.127-0.127 0.295-0.197 0.474-0.197s0.347 0.070 0.474 0.197l2.772 2.772c0.127 0.127 0.196 0.295 0.196 0.474s-0.070 0.347-0.196 0.474c-0.126 0.126-0.295 0.196-0.474 0.196s-0.348-0.070-0.474-0.196l-1.504-1.504c-0.122-0.122-0.32-0.122-0.442 0s-0.122 0.32 0 0.442l1.612 1.612-0.964 1.261c-0.105 0.137-0.079 0.333 0.059 0.438 0.057 0.043 0.123 0.064 0.19 0.064 0.094 0 0.187-0.042 0.249-0.123l1.061-1.388c0.070 0.012 0.142 0.019 0.214 0.019 0.346 0 0.671-0.135 0.916-0.379s0.379-0.57 0.379-0.916c0-0.153-0.028-0.301-0.078-0.441l1.24-0.7c0.085-0.048 0.143-0.133 0.156-0.23s-0.020-0.194-0.089-0.263l-1.138-1.138 3.061-1.486c0.185-0.091 0.341-0.229 0.452-0.4l5.232-8.044 2.786-1.546c0.151-0.084 0.205-0.274 0.122-0.425s-0.274-0.205-0.425-0.122zM14.96 18.995l-2.68-2.68 0.521-0.923 0.688 0.689c0 0 0 0 0 0l2.393 2.393-0.923 0.521z"></path>
<path d="M30.92 2.243c-0.303-0.544-0.993-0.741-1.538-0.439l-6.503 3.609c-0.161 0.088-0.299 0.217-0.4 0.372l-1.156 1.778c-0.094 0.145-0.053 0.338 0.092 0.432 0.053 0.034 0.112 0.051 0.17 0.051 0.102 0 0.202-0.050 0.262-0.142l1.156-1.778c0.045-0.069 0.107-0.126 0.179-0.166l6.504-3.609c0.244-0.135 0.553-0.047 0.688 0.196 0.066 0.118 0.081 0.255 0.044 0.385s-0.123 0.238-0.241 0.303l-1.505 0.835c-0.151 0.084-0.205 0.274-0.122 0.425s0.274 0.205 0.425 0.122l1.505-0.835c0.264-0.147 0.456-0.387 0.539-0.678s0.048-0.596-0.099-0.861z"></path>
<path d="M11.437 23.91c-0.137-0.105-0.333-0.079-0.438 0.058l-4.384 5.734c-0.233-0.040-0.751-0.187-1.377-0.382l2.671-2.671c0.122-0.122 0.122-0.32 0-0.442s-0.32-0.122-0.442 0l-2.899 2.899c-0.354-0.116-0.721-0.239-1.075-0.361-0.123-0.043-0.24-0.101-0.348-0.173l2.558-2.558c0.122-0.122 0.122-0.32 0-0.442s-0.32-0.122-0.442 0l-2.558 2.558c-0.072-0.108-0.13-0.225-0.173-0.348-0.122-0.354-0.245-0.721-0.361-1.075l2.899-2.898c0.122-0.122 0.122-0.32 0-0.442s-0.32-0.122-0.442-0l-2.671 2.671c-0.195-0.625-0.343-1.144-0.382-1.377l1.079-0.825c0.137-0.105 0.163-0.301 0.059-0.438s-0.301-0.163-0.438-0.058l-1.194 0.913c-0.212 0.157-0.153 0.433-0.031 0.905 0.075 0.29 0.191 0.685 0.345 1.173 0.261 0.826 0.544 1.648 0.547 1.657 0.108 0.311 0.288 0.598 0.519 0.828 0 0 0.001 0 0.001 0.001s0 0 0 0l0 0c0.231 0.232 0.518 0.412 0.829 0.52 0.008 0.003 0.831 0.286 1.657 0.547 0.488 0.154 0.883 0.27 1.173 0.345 0.246 0.064 0.438 0.11 0.589 0.11 0.138 0 0.241-0.039 0.316-0.141l4.472-5.85c0.105-0.137 0.078-0.333-0.059-0.438z"></path>
<path d="M7.141 24.578l1.925-1.925c0.122-0.122 0.122-0.32 0-0.442s-0.32-0.122-0.442 0l-1.925 1.925c-0.122 0.122-0.122 0.32 0 0.442 0.061 0.061 0.141 0.091 0.221 0.091s0.16-0.030 0.221-0.091z"></path>
</symbol>

    <symbol id="icon-circle-up" viewBox="0 0 32 32">
<path d="M0 16c0 8.837 7.163 16 16 16s16-7.163 16-16-7.163-16-16-16-16 7.163-16 16zM29 16c0 7.18-5.82 13-13 13s-13-5.82-13-13 5.82-13 13-13 13 5.82 13 13z"></path>
<path d="M22.086 20.914l2.829-2.829-8.914-8.914-8.914 8.914 2.828 2.828 6.086-6.086z"></path>
</symbol>



  </defs>
</svg>